<?xml version="1.0" encoding="UTF-8"?>
<svg width="200px" height="200px" viewBox="0 0 200 200" version="1.1" xmlns="http://www.w3.org/2000/svg" xmlns:xlink="http://www.w3.org/1999/xlink">
    <!-- Generator: Sketch 51.3 (57544) - http://www.bohemiancoding.com/sketch -->
    <title>Logo-lines</title>
    <desc>Created with Sketch.</desc>
    <defs>
        <rect id="path-1" x="0" y="0" width="63" height="200"></rect>
        <rect id="path-3" x="0" y="0" width="63" height="200"></rect>
        <rect id="path-5" x="0" y="0" width="63" height="200"></rect>
        <rect id="path-7" x="0" y="0" width="63" height="200"></rect>
        <rect id="path-9" x="0" y="0" width="63" height="200"></rect>
        <rect id="path-11" x="0" y="0" width="63" height="200"></rect>
        <rect id="path-13" x="0" y="0" width="63" height="200"></rect>
    </defs>
    <g id="Logo-lines" stroke="none" stroke-width="1" fill="none" fill-rule="evenodd">
        <polygon id="line-1" fill="#000000" fill-rule="nonzero" points="10 200 0 200 0 0 10 0"></polygon>
        <polygon id="line-2" fill="#000000" fill-rule="nonzero" points="29 200 19 200 19 0 29 0"></polygon>
        <polygon id="line-3" fill="#000000" fill-rule="nonzero" points="48 200 38 200 38 0 48 0"></polygon>
        <polygon id="line-1-1" fill="#000000" fill-rule="nonzero" points="21 200 9 200 9 0 21 0"></polygon>
        <polygon id="line-2-1" fill="#000000" fill-rule="nonzero" points="40 200 28 200 28 0 40 0"></polygon>
        <polygon id="line-3-1" fill="#000000" fill-rule="nonzero" points="59 200 47 200 47 0 59 0"></polygon>
        <polygon id="line-4" fill="#000000" fill-rule="nonzero" points="67 200 57 200 57 0 67 0"></polygon>
        <g id="Group" transform="translate(71.000000, 0.000000)">
            <mask id="mask-2" fill="white">
                <use xlink:href="#path-1"></use>
            </mask>
            <g id="Rectangle"></g>
            <polygon id="chevrolet-1" fill="#000000" fill-rule="nonzero" mask="url(#mask-2)" points="52 0 63 0 11 100 63 200 52 200 0 100"></polygon>
        </g>
        <g id="Group" transform="translate(92.000000, 0.000000)">
            <mask id="mask-4" fill="white">
                <use xlink:href="#path-3"></use>
            </mask>
            <g id="Rectangle"></g>
            <polygon id="chevrolet-2" fill="#000000" fill-rule="nonzero" mask="url(#mask-4)" points="52 0 63 0 11 100 63 200 52 200 0 100"></polygon>
        </g>
        <g id="Group" transform="translate(113.000000, 0.000000)">
            <mask id="mask-6" fill="white">
                <use xlink:href="#path-5"></use>
            </mask>
            <g id="Rectangle"></g>
            <polygon id="chevrolet-3" fill="#000000" fill-rule="nonzero" mask="url(#mask-6)" points="52 0 63 0 11 100 63 200 52 200 0 100"></polygon>
        </g>
        <g id="Group" transform="translate(134.000000, 0.000000)">
            <mask id="mask-8" fill="white">
                <use xlink:href="#path-7"></use>
            </mask>
            <g id="Rectangle"></g>
            <polygon id="chevrolet-4" fill="#000000" fill-rule="nonzero" mask="url(#mask-8)" points="52 0 63 0 11 100 63 200 52 200 0 100"></polygon>
        </g>
        <g id="Group" transform="translate(81.000000, 0.000000)">
            <mask id="mask-10" fill="white">
                <use xlink:href="#path-9"></use>
            </mask>
            <g id="Rectangle"></g>
            <polygon id="chevrolet-1-1" fill="#000000" fill-rule="nonzero" mask="url(#mask-10)" points="51 0 64 0 12 100 64 200 51 200 -1 100"></polygon>
        </g>
        <g id="Group" transform="translate(102.000000, 0.000000)">
            <mask id="mask-12" fill="white">
                <use xlink:href="#path-11"></use>
            </mask>
            <g id="Rectangle"></g>
            <polygon id="chevrolet-2-1" fill="#000000" fill-rule="nonzero" mask="url(#mask-12)" points="51 0 64 0 12 100 64 200 51 200 -1 100"></polygon>
        </g>
        <g id="Group" transform="translate(123.000000, 0.000000)">
            <mask id="mask-14" fill="white">
                <use xlink:href="#path-13"></use>
            </mask>
            <g id="Rectangle"></g>
            <polygon id="chevrolet-3-1" fill="#000000" fill-rule="nonzero" mask="url(#mask-14)" points="51 0 64 0 12 100 64 200 51 200 -1 100"></polygon>
        </g>
    </g>
</svg>