<?xml version="1.0" encoding="UTF-8"?>
<svg width="200px" height="200px" viewBox="0 0 200 200" version="1.1" xmlns="http://www.w3.org/2000/svg" xmlns:xlink="http://www.w3.org/1999/xlink">
    <!-- Generator: Sketch 51.3 (57544) - http://www.bohemiancoding.com/sketch -->
    <title>logo-stripes</title>
    <desc>Created with Sketch.</desc>
    <defs></defs>
    <g id="logo-stripes" stroke="none" stroke-width="1" fill="none" fill-rule="evenodd">
        <path d="M29,200 L19,200 L19,0 L29,0 L29,200 Z M10,200 L0,200 L0,0 L10,0 L10,200 Z M67,200 L57,200 L57,0 L67,0 L67,200 Z M48,200 L38,200 L38,0 L48,0 L48,200 Z M123,0 L134,0 L82,100 L134,200 L123,200 L71,100 L123,0 Z M144,0 L155,0 L103,100 L155,200 L144,200 L92,100 L144,0 Z M165,0 L176,0 L124,100 L176,200 L165,200 L113,100 L165,0 Z M186,0 L197,0 L145,100 L197,200 L186,200 L134,100 L186,0 Z" id="Path" fill="#000000" fill-rule="nonzero"></path>
    </g>
</svg>