<?xml version="1.0" encoding="UTF-8"?>
<svg width="317px" height="200px" viewBox="0 0 317 200" version="1.1" xmlns="http://www.w3.org/2000/svg" xmlns:xlink="http://www.w3.org/1999/xlink">
    <!-- Generator: Sketch 51.3 (57544) - http://www.bohemiancoding.com/sketch -->
    <title>sk-logo-lines</title>
    <desc>Created with Sketch.</desc>
    <defs>
    
        </defs>
    <g id="sk-logo-lines" stroke="none" stroke-width="1" fill="none" fill-rule="evenodd">
        <g id="g-1" fill="#000000">
            <g id="line-for-logo">
                <polygon id="line-1-1" points="52 0 0 100 16 100 68 0"></polygon>
            </g>
            <g id="line-for-logo" transform="translate(15.000000, 0.000000)">
                <polygon id="line-1-1" points="52 0 0 100 16 100 68 0"></polygon>
            </g>
            <g id="line-for-logo" transform="translate(30.000000, 0.000000)">
                <polygon id="line-1-1" points="52 0 0 100 16 100 68 0"></polygon>
            </g>
            <g id="line-for-logo" transform="translate(45.000000, 0.000000)">
                <polygon id="line-1-1" points="52 0 0 100 16 100 68 0"></polygon>
            </g>
            <g id="line-for-logo" transform="translate(60.000000, 0.000000)">
                <polygon id="line-1-1" points="52 0 0 100 16 100 68 0"></polygon>
            </g>
        </g>
        <g id="g-2" transform="translate(43.000000, 100.000000)" fill="#000000">
            <g id="line-for-logo">
                <polygon id="line-1-1" points="52 0 0 100 16 100 68 0"></polygon>
            </g>
            <g id="line-for-logo" transform="translate(15.000000, 0.000000)">
                <polygon id="line-1-1" points="52 0 0 100 16 100 68 0"></polygon>
            </g>
            <g id="line-for-logo" transform="translate(30.000000, 0.000000)">
                <polygon id="line-1-1" points="52 0 0 100 16 100 68 0"></polygon>
            </g>
            <g id="line-for-logo" transform="translate(45.000000, 0.000000)">
                <polygon id="line-1-1" points="52 0 0 100 16 100 68 0"></polygon>
            </g>
            <g id="line-for-logo" transform="translate(60.000000, 0.000000)">
                <polygon id="line-1-1" points="52 0 0 100 16 100 68 0"></polygon>
            </g>
        </g>
        <g id="g-3" transform="translate(190.000000, 0.000000)" fill="#000000">
            <g id="line-for-logo">
                <polygon id="line-1-1" points="52 0 0 100 16 100 68 0"></polygon>
            </g>
            <g id="line-for-logo" transform="translate(15.000000, 0.000000)">
                <polygon id="line-1-1" points="52 0 0 100 16 100 68 0"></polygon>
            </g>
            <g id="line-for-logo" transform="translate(30.000000, 0.000000)">
                <polygon id="line-1-1" points="52 0 0 100 16 100 68 0"></polygon>
            </g>
            <g id="line-for-logo" transform="translate(45.000000, 0.000000)">
                <polygon id="line-1-1" points="52 0 0 100 16 100 68 0"></polygon>
            </g>
            <g id="line-for-logo" transform="translate(60.000000, 0.000000)">
                <polygon id="line-1-1" points="52 0 0 100 16 100 68 0"></polygon>
            </g>
        </g>
        <g id="g-4" transform="translate(190.000000, 100.000000)" fill="#000000">
            <g id="line-alt-for-logo">
                <polygon id="line-1-1" points="16 0 68 100 52 100 0 0"></polygon>
            </g>
            <g id="line-alt-for-logo" transform="translate(15.000000, 0.000000)">
                <polygon id="line-1-1" points="16 0 68 100 52 100 0 0"></polygon>
            </g>
            <g id="line-alt-for-logo" transform="translate(30.000000, 0.000000)">
                <polygon id="line-1-1" points="16 0 68 100 52 100 0 0"></polygon>
            </g>
            <g id="line-alt-for-logo" transform="translate(45.000000, 0.000000)">
                <polygon id="line-1-1" points="16 0 68 100 52 100 0 0"></polygon>
            </g>
            <g id="line-alt-for-logo" transform="translate(60.000000, 0.000000)">
                <polygon id="line-1-1" points="16 0 68 100 52 100 0 0"></polygon>
            </g>
        </g>
    </g>
</svg>