<?xml version="1.0" encoding="UTF-8"?>
<svg width="317px" height="200px" viewBox="0 0 317 200" version="1.1" xmlns="http://www.w3.org/2000/svg" xmlns:xlink="http://www.w3.org/1999/xlink">
    <!-- Generator: Sketch 51.3 (57544) - http://www.bohemiancoding.com/sketch -->
    <title>sk-logo-stripes</title>
    <desc>Created with Sketch.</desc>
    <defs></defs>
    <g id="sk-logo-stripes" stroke="none" stroke-width="1" fill="none" fill-rule="evenodd">
        <polygon id="line-1-1" fill="#000000" points="52 0 0 100 16 100 68 0"></polygon>
        <polygon id="line-1-1" fill="#000000" points="82 0 30 100 46 100 98 0"></polygon>
        <polygon id="line-1-1" fill="#000000" points="112 0 60 100 76 100 128 0"></polygon>
        <polygon id="line-1-1" fill="#000000" points="95 100 43 200 59 200 111 100"></polygon>
        <polygon id="line-1-1" fill="#000000" points="125 100 73 200 89 200 141 100"></polygon>
        <polygon id="line-1-1" fill="#000000" points="155 100 103 200 119 200 171 100"></polygon>
        <polygon id="line-1-1" fill="#000000" points="242 0 190 100 206 100 258 0"></polygon>
        <polygon id="line-1-1" fill="#000000" points="272 0 220 100 236 100 288 0"></polygon>
        <polygon id="line-1-1" fill="#000000" points="302 0 250 100 266 100 318 0"></polygon>
        <polygon id="line-1-1" fill="#000000" points="206 100 258 200 242 200 190 100"></polygon>
        <polygon id="line-1-1" fill="#000000" points="236 100 288 200 272 200 220 100"></polygon>
        <polygon id="line-1-1" fill="#000000" points="266 100 318 200 302 200 250 100"></polygon>
    </g>
</svg>